<svg width="32" height="32" viewBox="0 0 32 32" fill="none" xmlns="http://www.w3.org/2000/svg">
<path d="M24.0001 27.9993C24.0001 29.1036 23.1044 29.9993 22.0001 29.9993H10.0001C8.89569 29.9993 8.00006 29.1036 8.00006 27.9993C8.00006 26.8949 8.89569 25.9993 10.0001 25.9993H14.0001V7.73675L11.1094 9.66175C10.1888 10.2805 8.94944 10.0243 8.336 9.11175C7.72369 8.193 7.97175 6.94925 8.89069 6.33675L14.8907 2.33675C15.5049 1.92756 16.2938 1.88756 16.9432 2.23713C17.2624 2.40777 17.5293 2.66187 17.7155 2.97231C17.9016 3.28276 17.9999 3.63791 18.0001 3.99988V25.9999H22.0001C23.1063 25.9993 24.0001 26.893 24.0001 27.9993Z" fill="#5EEAD4"/>
</svg>
