<svg width="64" height="32" viewBox="0 0 64 32" fill="none" xmlns="http://www.w3.org/2000/svg">
<path d="M17.9999 27.9996C17.9999 29.104 17.1043 29.9996 15.9999 29.9996H3.99991C2.89553 29.9996 1.99991 29.104 1.99991 27.9996C1.99991 26.8952 2.89553 25.9996 3.99991 25.9996H7.99991V7.73712L5.10928 9.66212C4.18866 10.2809 2.94928 10.0246 2.33585 9.11212C1.72353 8.19337 1.9716 6.94962 2.89053 6.33712L8.89053 2.33712C9.50478 1.92793 10.2937 1.88793 10.943 2.23749C11.2623 2.40813 11.5292 2.66223 11.7153 2.97268C11.9014 3.28312 11.9998 3.63827 11.9999 4.00024V26.0002H15.9999C17.1062 25.9996 17.9999 26.8934 17.9999 27.9996Z" fill="#5EEAD4"/>
<path d="M29.9999 2C24.4768 2 19.9999 6.48589 19.9999 12.0201V19.9799C19.9999 25.5141 24.4768 30 29.9999 30C35.523 30 39.9999 25.5141 39.9999 19.9799V12.0195C39.9999 6.48338 35.5249 2 29.9999 2V2ZM35.9999 20.0356C35.9999 23.3504 33.3087 26.0477 29.9999 26.0477C26.6918 26.0477 23.9999 23.3504 23.9999 20.0356V12.0195C23.9999 8.70409 26.6918 6.00743 29.9999 6.00743C33.3087 6.00743 35.9999 8.70409 35.9999 12.0195V20.0356Z" fill="#5EEAD4"/>
<path d="M51.9999 2C46.4768 2 41.9999 6.48589 41.9999 12.0201V19.9799C41.9999 25.5141 46.4768 30 51.9999 30C57.523 30 61.9999 25.5141 61.9999 19.9799V12.0195C61.9999 6.48338 57.5249 2 51.9999 2V2ZM57.9999 20.0356C57.9999 23.3504 55.3087 26.0477 51.9999 26.0477C48.6918 26.0477 45.9999 23.3504 45.9999 20.0356V12.0195C45.9999 8.70409 48.6918 6.00743 51.9999 6.00743C55.3087 6.00743 57.9999 8.70409 57.9999 12.0195V20.0356Z" fill="#5EEAD4"/>
</svg>
