<svg width="42" height="32" viewBox="0 0 42 32" fill="none" xmlns="http://www.w3.org/2000/svg">
<path d="M18 27.9996C18 29.104 17.1044 29.9996 16 29.9996H4C2.89562 29.9996 2 29.104 2 27.9996C2 26.8952 2.89562 25.9996 4 25.9996H8V7.73712L5.10938 9.66212C4.18875 10.2809 2.94937 10.0246 2.33594 9.11212C1.72363 8.19337 1.97169 6.94962 2.89062 6.33712L8.89062 2.33712C9.50488 1.92793 10.2937 1.88793 10.9431 2.23749C11.2623 2.40813 11.5293 2.66223 11.7154 2.97268C11.9015 3.28312 11.9999 3.63827 12 4.00024V26.0002H16C17.1063 25.9996 18 26.8934 18 27.9996Z" fill="#5EEAD4"/>
<path d="M40 21.5C40 26.1863 36.1863 30 31.5 30H26.475C23.5787 30 21.0181 28.1544 20.1562 25.4075C19.8066 24.3594 20.374 23.2275 21.4219 22.8781C22.4688 22.5276 23.6025 23.0959 23.9513 24.1437C24.131 24.6848 24.4768 25.1554 24.9395 25.4887C25.4021 25.8219 25.958 26.0008 26.5281 26H31.5C33.9813 26 36 23.9813 36 21.5C36 19.0187 33.9813 17 31.5 17H25C24.175 17 23.4344 16.4941 23.1356 15.7244C22.8369 14.9562 23.0413 14.0812 23.6488 13.525L31.8612 6H22C20.8956 6 20 5.10438 20 4C20 2.89562 20.8956 2 22 2H37C37.825 2 38.5656 2.50587 38.8644 3.27562C39.1632 4.04438 38.9591 4.9175 38.3517 5.475L30.1392 13H31.5C36.1312 13 40 16.8125 40 21.5Z" fill="#5EEAD4"/>
</svg>
