<svg width="32" height="32" viewBox="0 0 32 32" fill="none" xmlns="http://www.w3.org/2000/svg">
<path d="M25.9998 27.996C25.9998 29.1026 25.1042 30 23.9998 30H7.99979C7.60036 30 7.21008 29.8802 6.87924 29.656C6.5484 29.4317 6.29216 29.1133 6.14354 28.7418C5.99504 28.3705 5.96088 27.9631 6.04547 27.5721C6.13006 27.1811 6.32952 26.8245 6.61816 26.5481L18.7182 14.9561C20.6782 13.0666 20.84 9.94599 19.0814 7.85429C18.1495 6.74644 16.8402 6.09326 15.3958 6.01435C13.9623 5.94108 12.581 6.44647 11.5329 7.44848L9.34479 9.43998C8.52729 10.1858 7.26166 10.122 6.51979 9.30395C5.7771 8.48807 5.83766 7.21676 6.65479 6.47152L8.80791 4.51133C10.5998 2.79915 13.0823 1.87416 15.6142 2.01382C18.1348 2.15084 20.5135 3.33898 22.1392 5.27224C25.2517 8.97028 24.9642 14.497 21.486 17.8475L12.986 25.9888H23.9998C25.106 25.992 25.9998 26.8875 25.9998 27.996V27.996Z" fill="#5EEAD4"/>
</svg>
