<svg width="46" height="32" viewBox="0 0 46 32" fill="none" xmlns="http://www.w3.org/2000/svg">
<path d="M21.9997 27.996C21.9997 29.1026 21.1041 30 19.9997 30H3.99973C3.6003 30 3.21002 29.8802 2.87918 29.656C2.54834 29.4317 2.2921 29.1133 2.14348 28.7418C1.99498 28.3705 1.96082 27.9631 2.04541 27.5721C2.13 27.1811 2.32946 26.8245 2.6181 26.5481L14.7181 14.9561C16.6781 13.0666 16.84 9.94599 15.0814 7.85429C14.1495 6.74644 12.8401 6.09326 11.3957 6.01435C9.96223 5.94108 8.58098 6.44647 7.53285 7.44848L5.34473 9.43998C4.52723 10.1858 3.2616 10.122 2.51973 9.30395C1.77704 8.48807 1.8376 7.21676 2.65473 6.47152L4.80785 4.51133C6.59973 2.79915 9.08223 1.87416 11.6141 2.01382C14.1347 2.15084 16.5135 3.33898 18.1391 5.27224C21.2516 8.97028 20.9641 14.497 17.486 17.8475L8.98598 25.9888H19.9997C21.106 25.992 21.9997 26.8875 21.9997 27.996V27.996Z" fill="#5EEAD4"/>
<path d="M33.9997 2C28.4766 2 23.9997 6.48589 23.9997 12.0201V19.9799C23.9997 25.5141 28.4766 30 33.9997 30C39.5229 30 43.9997 25.5141 43.9997 19.9799V12.0195C43.9997 6.48338 39.5247 2 33.9997 2V2ZM39.9997 20.0356C39.9997 23.3504 37.3085 26.0477 33.9997 26.0477C30.6916 26.0477 27.9997 23.3504 27.9997 20.0356V12.0195C27.9997 8.70409 30.6916 6.00743 33.9997 6.00743C37.3085 6.00743 39.9997 8.70409 39.9997 12.0195V20.0356Z" fill="#5EEAD4"/>
</svg>
