<svg width="32" height="32" viewBox="0 0 32 32" fill="none" xmlns="http://www.w3.org/2000/svg">
<path d="M25.5001 21.5C25.5001 26.1863 21.6863 30 17.0001 30H11.9751C9.07881 30 6.51819 28.1544 5.65631 25.4075C5.30669 24.3594 5.87406 23.2275 6.92194 22.8781C7.96881 22.5276 9.10256 23.0959 9.45131 24.1437C9.63111 24.6848 9.9769 25.1554 10.4395 25.4887C10.9021 25.8219 11.458 26.0008 12.0282 26H17.0001C19.4813 26 21.5001 23.9813 21.5001 21.5C21.5001 19.0187 19.4813 17 17.0001 17H10.5001C9.67506 17 8.93444 16.4941 8.63569 15.7244C8.33694 14.9562 8.54131 14.0812 9.14881 13.525L17.3613 6H7.50006C6.39569 6 5.50006 5.10438 5.50006 4C5.50006 2.89562 6.39569 2 7.50006 2H22.5001C23.3251 2 24.0657 2.50587 24.3644 3.27562C24.6632 4.04438 24.4592 4.9175 23.8517 5.475L15.6392 13H17.0001C21.6313 13 25.5001 16.8125 25.5001 21.5Z" fill="#5EEAD4"/>
</svg>
