<svg width="50" height="32" viewBox="0 0 50 32" fill="none" xmlns="http://www.w3.org/2000/svg">
<path d="M25.9998 20.8876C25.9998 21.992 25.1042 22.8876 23.9998 22.8876H21.9998V27.9989C21.9998 29.1033 21.1042 29.9989 19.9998 29.9989C18.8955 29.9989 17.9998 29.1033 17.9998 27.9989V22.8876H3.99983C3.66246 22.8875 3.3306 22.8021 3.03505 22.6394C2.73949 22.4767 2.48982 22.242 2.30921 21.957C2.12909 21.6719 2.02391 21.3459 2.00342 21.0092C1.98294 20.6726 2.04781 20.3363 2.19202 20.0314L10.192 3.14389C10.6623 2.14576 11.8623 1.72264 12.8561 2.19326C13.8542 2.66589 14.2798 3.85951 13.8073 4.85764L7.15983 18.8876H17.9998V10.0001C17.9998 8.89576 18.8955 8.00014 19.9998 8.00014C21.1042 8.00014 21.9998 8.89576 21.9998 10.0001V18.8876H23.9998C25.1061 18.8876 25.9998 19.7876 25.9998 20.8876Z" fill="#5EEAD4"/>
<path d="M37.9998 2C32.4767 2 27.9998 6.48589 27.9998 12.0201V19.9799C27.9998 25.5141 32.4767 30 37.9998 30C43.523 30 47.9998 25.5141 47.9998 19.9799V12.0195C47.9998 6.48338 43.5248 2 37.9998 2V2ZM43.9998 20.0356C43.9998 23.3504 41.3086 26.0477 37.9998 26.0477C34.6917 26.0477 31.9998 23.3504 31.9998 20.0356V12.0195C31.9998 8.70409 34.6917 6.00743 37.9998 6.00743C41.3086 6.00743 43.9998 8.70409 43.9998 12.0195V20.0356Z" fill="#5EEAD4"/>
</svg>
