<svg width="32" height="32" viewBox="0 0 32 32" fill="none" xmlns="http://www.w3.org/2000/svg">
<path d="M26.4998 21.5369C26.4998 26.2031 22.7042 29.9994 18.0373 29.9994H13.0436C10.1179 29.9994 7.52982 28.135 6.60607 25.36C6.25644 24.3119 6.82288 23.1794 7.87044 22.83C8.92232 22.4784 10.0523 23.0468 10.4004 24.0944C10.585 24.6494 10.9398 25.1322 11.4144 25.4742C11.889 25.8162 12.4592 25.9999 13.0442 25.9994H18.0411C20.5011 25.9994 22.5029 23.9975 22.5029 21.5375C22.5029 19.0775 20.5011 17.0763 18.0411 17.0763H8.49982C8.20705 17.0762 7.91785 17.012 7.65263 16.888C7.3874 16.764 7.15261 16.5834 6.96482 16.3588C6.77721 16.1347 6.64119 15.8722 6.56641 15.5898C6.49162 15.3073 6.4799 15.0119 6.53207 14.7244L8.53207 3.64938C8.70419 2.6925 9.53232 2 10.4998 2L22.4998 2.00031C23.6042 2.00031 24.4998 2.89594 24.4998 4.00031C24.4998 5.10469 23.6042 6.00031 22.4998 6.00031H12.1704L10.8936 13.0744H18.0373C22.7061 13.0744 26.4998 16.8181 26.4998 21.5369Z" fill="#5EEAD4"/>
</svg>
