<svg width="32" height="32" viewBox="0 0 32 32" fill="none" xmlns="http://www.w3.org/2000/svg">
<path d="M22.2188 15.575C23.625 14.1312 24.5 12.1688 24.5 10C24.5 5.58875 20.9113 2 16.5 2H14.5C10.0887 2 6.5 5.58875 6.5 10C6.5 12.1688 7.37437 14.1325 8.78 15.5744C6.80187 17.0313 5.5 19.3625 5.5 22C5.5 26.4113 9.08875 30 13.5 30H17.5C21.9113 30 25.5 26.4113 25.5 22C25.5 19.3625 24.2 17.0312 22.2188 15.575ZM14.5 6.00063H16.5C18.7062 6.00063 20.5 7.79437 20.5 10.0006C20.5 12.2069 18.7062 14.0006 16.5 14.0006H14.5C12.2938 14.0006 10.5 12.2069 10.5 10.0006C10.5 7.79437 12.2938 6.00063 14.5 6.00063V6.00063ZM17.5 26H13.5C11.2938 26 9.5 24.2062 9.5 22C9.5 19.7938 11.2938 18 13.5 18H17.5C19.7062 18 21.5 19.7938 21.5 22C21.5 24.2062 19.7062 26 17.5 26Z" fill="#5EEAD4"/>
</svg>
