<svg width="46" height="32" viewBox="0 0 46 32" fill="none" xmlns="http://www.w3.org/2000/svg">
<path d="M18.7187 15.575C20.1249 14.1312 20.9999 12.1688 20.9999 10C20.9999 5.58875 17.4112 2 12.9999 2H10.9999C6.58866 2 2.99991 5.58875 2.99991 10C2.99991 12.1688 3.87428 14.1325 5.27991 15.5744C3.30178 17.0313 1.99991 19.3625 1.99991 22C1.99991 26.4113 5.58866 30 9.99991 30H13.9999C18.4112 30 21.9999 26.4113 21.9999 22C21.9999 19.3625 20.6999 17.0312 18.7187 15.575ZM10.9999 6.00063H12.9999C15.2062 6.00063 16.9999 7.79437 16.9999 10.0006C16.9999 12.2069 15.2062 14.0006 12.9999 14.0006H10.9999C8.79366 14.0006 6.99991 12.2069 6.99991 10.0006C6.99991 7.79437 8.79366 6.00063 10.9999 6.00063V6.00063ZM13.9999 26H9.99991C7.79366 26 5.99991 24.2062 5.99991 22C5.99991 19.7938 7.79366 18 9.99991 18H13.9999C16.2062 18 17.9999 19.7938 17.9999 22C17.9999 24.2062 16.2062 26 13.9999 26Z" fill="#5EEAD4"/>
<path d="M33.9999 2C28.4768 2 23.9999 6.48589 23.9999 12.0201V19.9799C23.9999 25.5141 28.4768 30 33.9999 30C39.523 30 43.9999 25.5141 43.9999 19.9799V12.0195C43.9999 6.48338 39.5249 2 33.9999 2V2ZM39.9999 20.0356C39.9999 23.3504 37.3087 26.0477 33.9999 26.0477C30.6918 26.0477 27.9999 23.3504 27.9999 20.0356V12.0195C27.9999 8.70409 30.6918 6.00743 33.9999 6.00743C37.3087 6.00743 39.9999 8.70409 39.9999 12.0195V20.0356Z" fill="#5EEAD4"/>
</svg>
