<svg width="33" height="32" viewBox="0 0 33 32" fill="none" xmlns="http://www.w3.org/2000/svg">
<path d="M24.3751 12.4966H4.25006C3.27936 12.4966 2.50006 13.2788 2.50006 14.2469V24.749C2.50006 27.648 4.85162 30 7.75006 30H18.2501C21.1485 30 23.5001 27.648 23.5001 24.749H24.3751C27.752 24.749 30.5001 22.0004 30.5001 18.6228C30.5001 15.2452 27.7547 12.4966 24.3751 12.4966ZM24.3751 21.2483H23.5001V15.9973H24.3751C25.8243 15.9973 27.0001 17.1733 27.0001 18.6228C27.0001 20.0723 25.8243 21.2483 24.3751 21.2483ZM8.40084 7.50264C9.07897 7.85271 9.50006 8.63489 9.50006 9.43348C9.50006 10.1582 10.088 10.7402 10.8126 10.7402C11.5372 10.7402 12.1251 10.0953 12.1251 9.41707C12.1251 7.70283 11.2047 6.10018 9.72373 5.2354C9.04615 4.84048 8.62506 4.10752 8.62506 3.3226C8.62506 2.59785 8.03717 2.00219 7.31256 2.00219C6.58795 2.00219 6.00006 2.59785 6.00006 3.3226C6.00006 5.03739 6.92045 6.6395 8.40084 7.50264ZM14.5258 7.50264C15.204 7.85271 15.6251 8.63489 15.6251 9.43348C15.6251 10.1582 16.213 10.7386 16.9376 10.7386C17.6622 10.7386 18.2501 10.0953 18.2501 9.41707C18.2501 7.70283 17.3297 6.10018 15.8487 5.2354C15.1712 4.84048 14.7501 4.10752 14.7501 3.3226C14.7501 2.59785 14.1622 2 13.4376 2C12.713 2 12.1251 2.59785 12.1251 3.3226C12.1251 5.03739 13.0438 6.6395 14.5258 7.50264Z" fill="#5EEAD4"/>
</svg>
