<svg width="40" height="32" viewBox="0 0 40 32" fill="none" xmlns="http://www.w3.org/2000/svg">
<path d="M13.3915 19.4782C13.3915 20.2465 12.7685 20.8696 12.0002 20.8696H3.65212C2.88384 20.8696 2.26078 20.2465 2.26078 19.4782C2.26078 18.7099 2.88384 18.0869 3.65212 18.0869H6.4348V5.38219L4.42388 6.72135C3.78343 7.1518 2.92123 6.97353 2.49448 6.33873C2.06851 5.69959 2.24108 4.83435 2.88036 4.40825L7.05439 1.62556C7.4817 1.3409 8.0305 1.31308 8.48225 1.55626C8.70432 1.67497 8.89001 1.85174 9.01949 2.06771C9.14898 2.28367 9.21741 2.53074 9.21749 2.78255V18.0873H12.0002C12.7698 18.0869 13.3915 18.7086 13.3915 19.4782Z" fill="#5EEAD4"/>
<path fill-rule="evenodd" clip-rule="evenodd" d="M25.2122 5.7488C25.8793 6.13003 26.1111 6.97991 25.7299 7.64707L14.5994 27.1253C14.2182 27.7925 13.3683 28.0243 12.7012 27.643C12.034 27.2618 11.8022 26.4119 12.1835 25.7448L23.3139 6.26651C23.6951 5.59935 24.545 5.36757 25.2122 5.7488Z" fill="#5EEAD4"/>
<path d="M37.7389 29.2146C37.7389 29.9844 37.1158 30.6087 36.3475 30.6087H25.2171C24.9393 30.6087 24.6678 30.5254 24.4376 30.3694C24.2075 30.2134 24.0292 29.9919 23.9258 29.7335C23.8225 29.4751 23.7987 29.1917 23.8576 28.9197C23.9164 28.6477 24.0552 28.3996 24.256 28.2074L32.6734 20.1433C34.0369 18.829 34.1495 16.6581 32.9261 15.203C32.2778 14.4323 31.3669 13.9779 30.3622 13.923C29.3649 13.8721 28.4041 14.2236 27.6749 14.9207L26.1528 16.3061C25.5841 16.8249 24.7036 16.7805 24.1875 16.2114C23.6709 15.6439 23.713 14.7595 24.2815 14.2411L25.7793 12.8774C27.0258 11.6864 28.7528 11.0429 30.5141 11.14C32.2675 11.2354 33.9223 12.0619 35.0532 13.4068C37.2184 15.9793 37.0184 19.824 34.5989 22.1548L28.6858 27.8183H36.3475C37.1171 27.8205 37.7389 28.4435 37.7389 29.2146V29.2146Z" fill="#5EEAD4"/>
</svg>
