<svg width="33" height="32" viewBox="0 0 33 32" fill="none" xmlns="http://www.w3.org/2000/svg">
<path d="M19.2688 2H12.5001C9.19131 2 6.50006 4.69673 6.50006 8.01221C6.50006 9.11884 7.39444 9.95992 8.50006 9.95992C9.60569 9.95992 10.5001 9.0631 10.5001 8.01221C10.5001 6.90747 11.3963 6.00814 12.5001 6.00814H19.2688C21.0501 6.00814 22.5001 7.46047 22.5001 9.25161C22.5001 10.4866 21.8144 11.5982 20.5938 12.2158L14.4876 15.8024C13.8188 16.1656 13.5001 16.8232 13.5001 17.5309V20.036C13.5001 21.1426 14.3944 22.0395 15.5001 22.0395C16.6057 22.0395 17.5001 21.1426 17.5001 20.036V18.677L22.5001 15.7335C24.9669 14.4966 26.5001 12.0122 26.5001 9.25161C26.5001 5.25286 23.2563 2 19.2688 2V2ZM15.5001 25.0462C14.1194 25.0462 13.0001 26.1678 13.0001 27.5513C13.0001 28.9347 14.1194 30 15.5001 30C16.8807 30 18.0001 28.879 18.0001 27.5513C18.0001 26.2236 16.8813 25.0462 15.5001 25.0462Z" fill="#5EEAD4"/>
</svg>
