<svg width="28" height="28" viewBox="0 0 28 28" fill="none" xmlns="http://www.w3.org/2000/svg">
<path fill-rule="evenodd" clip-rule="evenodd" d="M15.6153 24.6432L19.4949 25.6827C21.0953 26.1115 22.7403 25.1618 23.1691 23.5614L27.3102 8.10657C27.739 6.50618 26.7893 4.86116 25.1889 4.43234L16.4956 2.10297C15.9604 1.95958 15.4203 1.97032 14.9224 2.10798C15.7658 2.57108 16.4241 3.32944 16.7582 4.24389L24.6712 6.36419C25.2047 6.50713 25.5213 7.05547 25.3784 7.58893L21.2373 23.0437C21.0943 23.5772 20.546 23.8938 20.0125 23.7509L16.7935 22.8883C16.5633 23.5755 16.1516 24.1794 15.6153 24.6432ZM16.9999 16.6582L20.7701 17.6684C21.4417 17.8484 21.8689 16.9971 21.517 16.9028L16.9999 15.6925V16.6582ZM16.9999 15.2097L18.6587 15.6541C19.4049 15.8541 20.1724 15.4109 20.3724 14.6648L20.8229 14.7855C21.8168 15.0518 22.8414 14.4602 23.1077 13.4663C23.3741 12.4724 22.7825 11.4477 21.7886 11.1814L16.9999 9.89832V15.2097ZM21.5471 12.0824C22.0441 12.2156 22.3399 12.7279 22.2067 13.2249C22.0736 13.7218 21.5613 14.0176 21.0643 13.8845L20.6138 13.7637L21.0966 11.9617L21.5471 12.0824ZM1 5.61658C1 3.95972 2.34315 2.61658 4 2.61658H13C14.6569 2.61658 16 3.95972 16 5.61658V21.6166C16 23.2734 14.6569 24.6166 13 24.6166H4C2.34315 24.6166 1 23.2734 1 21.6166V5.61658ZM4 4.61658C3.44772 4.61658 3 5.06429 3 5.61658V21.6166C3 22.1689 3.44772 22.6166 4 22.6166H13C13.5523 22.6166 14 22.1689 14 21.6166V5.61658C14 5.06429 13.5523 4.61658 13 4.61658H4ZM5.65083 11.2166C6.36431 10.1914 7.27308 9.61658 8.67615 9.61658C10.1682 9.61658 11.7608 10.7812 11.7608 12.3166C11.7608 13.5845 10.9091 14.076 10.2651 14.4477C9.87356 14.6736 9.55882 14.8553 9.55882 15.1401V15.2416C9.55882 15.4746 9.36994 15.6635 9.13694 15.6635H7.86304C7.63004 15.6635 7.44116 15.4746 7.44116 15.2416V15.0695C7.44116 14.0087 8.22619 13.5694 8.84279 13.2243C8.85791 13.2159 8.87293 13.2075 8.88783 13.1991C9.42178 12.8998 9.74903 12.6962 9.74903 12.2998C9.74903 11.7754 9.08015 11.4273 8.53938 11.4273C7.8516 11.4273 7.52498 11.7449 7.08466 12.2966C6.94191 12.4754 6.68248 12.5077 6.50014 12.3695L5.74185 11.7945C5.56131 11.6576 5.5214 11.4026 5.65083 11.2166ZM7.28235 17.3989C7.28235 16.7275 7.82859 16.1813 8.5 16.1813C9.17141 16.1813 9.71765 16.7275 9.71765 17.3989C9.71765 18.0703 9.17141 18.6166 8.5 18.6166C7.82859 18.6166 7.28235 18.0703 7.28235 17.3989Z" fill="#5EEAD4"/>
</svg>
